<svg width="16" height="14" viewBox="0 0 16 14" fill="none" xmlns="http://www.w3.org/2000/svg">
<path d="M0.915527 7.00049L0.922363 6.96826L0.939941 6.94092H0.940918L6.77393 1.10693C6.78967 1.09132 6.81132 1.08252 6.8335 1.08252C6.8557 1.08259 6.87736 1.09123 6.89307 1.10693C6.90877 1.12264 6.91742 1.1443 6.91748 1.1665L6.91064 1.19873L6.89307 1.22607L2.0542 6.06299L1.20068 6.9165L14.9995 6.9165C15.0106 6.9165 15.0217 6.91918 15.0317 6.92334L15.0591 6.94092C15.0747 6.95654 15.0835 6.97839 15.0835 7.00049C15.0834 7.01136 15.0807 7.02188 15.0767 7.03174L15.0591 7.05908C15.0435 7.07471 15.0216 7.0835 14.9995 7.0835L1.20068 7.0835L2.0542 7.93701L6.89307 12.7739C6.90872 12.7897 6.91748 12.8113 6.91748 12.8335L6.91064 12.8657L6.89307 12.8931C6.87736 12.9088 6.8557 12.9174 6.8335 12.9175L6.80127 12.9106L6.77393 12.8931L0.940918 7.05908H0.939941L0.922363 7.03174C0.918234 7.02176 0.915581 7.01129 0.915527 7.00049Z" fill="#50555C" stroke="#50555C"/>
</svg>
