<svg width="19" height="18" viewBox="0 0 19 18" fill="none" xmlns="http://www.w3.org/2000/svg">
<path d="M5.69305 17.4999C5.1928 17.4999 4.76492 17.3218 4.40942 16.9655C4.05392 16.6093 3.8758 16.1822 3.87505 15.6842V12.9999H1.84104C1.34154 12.9999 0.914045 12.8218 0.558545 12.4655C0.203045 12.1093 0.0249199 11.6818 0.0241699 11.1831V6.9418C0.0241699 6.3043 0.240545 5.7703 0.673295 5.3398C1.10604 4.9078 1.63967 4.6918 2.27417 4.6918H16.7259C17.3634 4.6918 17.8978 4.9078 18.329 5.3398C18.7603 5.7718 18.9759 6.3058 18.9759 6.9418V11.1831C18.9759 11.6825 18.7982 12.11 18.4427 12.4655C18.0872 12.821 17.6593 12.9992 17.159 12.9999H15.125V15.6831C15.125 16.1826 14.9469 16.6101 14.5907 16.9655C14.2344 17.3211 13.8069 17.4992 13.3082 17.4999H5.69305ZM1.84104 11.8749H3.87505C3.90429 11.4002 4.09255 10.9929 4.4398 10.6532C4.78705 10.3142 5.2048 10.1447 5.69305 10.1447H13.3082C13.7957 10.1447 14.213 10.3146 14.5603 10.6543C14.9075 10.9933 15.0958 11.4002 15.125 11.8749H17.159C17.3608 11.8749 17.5265 11.81 17.6563 11.6803C17.786 11.5505 17.8509 11.3848 17.8509 11.1831V6.9418C17.8509 6.6238 17.7433 6.3568 17.528 6.1408C17.3128 5.9248 17.0454 5.8168 16.7259 5.8168H2.27417C1.95542 5.8168 1.68842 5.9248 1.47317 6.1408C1.25792 6.3568 1.14992 6.62418 1.14917 6.94292V11.1831C1.14917 11.3848 1.21405 11.5505 1.3438 11.6803C1.47355 11.81 1.63929 11.8749 1.84104 11.8749ZM14 4.69292V2.00867C14 1.80617 13.9352 1.64042 13.8054 1.51142C13.6757 1.38167 13.5099 1.3168 13.3082 1.3168H5.69192C5.49017 1.3168 5.32442 1.38167 5.19467 1.51142C5.06492 1.64117 5.00005 1.80692 5.00005 2.00867V4.6918H3.87505V2.00867C3.87505 1.50917 4.05317 1.0813 4.40942 0.725049C4.76492 0.368799 5.19242 0.190674 5.69192 0.190674H13.3082C13.8077 0.190674 14.2352 0.368799 14.5907 0.725049C14.9469 1.0813 15.125 1.5088 15.125 2.00755V4.6918L14 4.69292ZM15.818 8.63043C16.1368 8.63043 16.4038 8.52242 16.619 8.30643C16.8343 8.09043 16.9423 7.82342 16.943 7.50542C16.9438 7.18743 16.8358 6.92005 16.619 6.7033C16.4023 6.48655 16.1353 6.37855 15.818 6.3793C15.5008 6.38005 15.2334 6.48805 15.0159 6.7033C14.7984 6.91855 14.6908 7.18593 14.693 7.50542C14.6953 7.82492 14.8029 8.09193 15.0159 8.30643C15.2289 8.52092 15.4963 8.62893 15.818 8.63043ZM14 15.6819V11.9615C14 11.759 13.9352 11.5929 13.8054 11.4632C13.6757 11.3334 13.5099 11.2685 13.3082 11.2685H5.69192C5.49017 11.2685 5.32442 11.3334 5.19467 11.4632C5.06492 11.5937 5.00005 11.7598 5.00005 11.9615V15.6831C5.00005 15.8848 5.06492 16.0505 5.19467 16.1803C5.32442 16.31 5.49055 16.3749 5.69305 16.3749H13.3082C13.5099 16.3749 13.6757 16.31 13.8054 16.1803C13.9352 16.0505 14 15.8844 14 15.6819ZM1.84104 5.81792H1.14917H17.8509H1.84104Z" fill="black"/>
</svg>
