<svg width="122" height="40" viewBox="0 0 122 40" fill="none" xmlns="http://www.w3.org/2000/svg">
<rect x="0.5" y="0.5" width="121" height="39" rx="7.5" stroke="#007D88"/>
<path d="M20 12V28M28 20L12 20" stroke="#007D88" stroke-width="1.5" stroke-linecap="round"/>
<path d="M40.6778 27.92V24.872C41.1258 24.872 41.4858 24.76 41.7578 24.536C42.0298 24.3067 42.2378 24.0027 42.3818 23.624C42.5258 23.2453 42.6351 22.8213 42.7098 22.352C42.7844 21.8773 42.8484 21.3973 42.9018 20.912C42.9764 20.2027 43.0351 19.5173 43.0778 18.856C43.1258 18.1947 43.1658 17.5093 43.1978 16.8C43.2351 16.0907 43.2778 15.3147 43.3258 14.472L50.4298 14.48V24.872H51.2538V27.92H50.0858V26H41.8538V27.92H40.6778ZM42.9258 24.872H49.2538V15.608L44.4218 15.6C44.3898 16.2507 44.3578 16.88 44.3258 17.488C44.2938 18.096 44.2564 18.7093 44.2138 19.328C44.1711 19.9467 44.1151 20.592 44.0458 21.264C43.9871 21.8773 43.9178 22.4133 43.8378 22.872C43.7578 23.3307 43.6458 23.7227 43.5018 24.048C43.3631 24.3733 43.1711 24.648 42.9258 24.872ZM56.6186 26.24C55.76 26.24 55.0266 26.0453 54.4186 25.656C53.8106 25.2667 53.344 24.728 53.0186 24.04C52.6933 23.352 52.5306 22.5627 52.5306 21.672C52.5306 20.7653 52.696 19.9707 53.0266 19.288C53.3573 18.6053 53.8266 18.0747 54.4346 17.696C55.048 17.312 55.776 17.12 56.6186 17.12C57.4826 17.12 58.2186 17.3147 58.8266 17.704C59.44 18.088 59.9066 18.624 60.2266 19.312C60.552 19.9947 60.7146 20.7813 60.7146 21.672C60.7146 22.5787 60.552 23.376 60.2266 24.064C59.9013 24.7467 59.432 25.28 58.8186 25.664C58.2053 26.048 57.472 26.24 56.6186 26.24ZM56.6186 25.112C57.5786 25.112 58.2933 24.7947 58.7626 24.16C59.232 23.52 59.4666 22.6907 59.4666 21.672C59.4666 20.6267 59.2293 19.7947 58.7546 19.176C58.2853 18.5573 57.5733 18.248 56.6186 18.248C55.9733 18.248 55.44 18.3947 55.0186 18.688C54.6026 18.976 54.2906 19.3787 54.0826 19.896C53.88 20.408 53.7786 21 53.7786 21.672C53.7786 22.712 54.0186 23.5467 54.4986 24.176C54.9786 24.8 55.6853 25.112 56.6186 25.112ZM65.9434 26.248C65.138 26.2427 64.4474 26.0667 63.8714 25.72C63.2954 25.3733 62.8474 24.856 62.5274 24.168C62.2127 23.48 62.042 22.6213 62.0154 21.592C61.9994 21.1387 62.01 20.6453 62.0474 20.112C62.0847 19.5733 62.1434 19.0613 62.2234 18.576C62.3034 18.0907 62.3994 17.696 62.5114 17.392C62.65 16.9973 62.8474 16.6293 63.1034 16.288C63.3647 15.9413 63.666 15.6587 64.0074 15.44C64.338 15.216 64.7114 15.0427 65.1274 14.92C65.5487 14.792 65.986 14.6933 66.4394 14.624C66.898 14.5547 67.3514 14.4933 67.7994 14.44C68.2527 14.3867 68.6714 14.32 69.0554 14.24L69.1834 15.304C68.89 15.3627 68.5434 15.416 68.1434 15.464C67.7434 15.512 67.3247 15.5707 66.8874 15.64C66.45 15.704 66.0314 15.792 65.6314 15.904C65.2314 16.016 64.89 16.1627 64.6074 16.344C64.1754 16.6053 63.842 17 63.6074 17.528C63.378 18.056 63.2367 18.6613 63.1834 19.344C63.514 18.8267 63.9514 18.4373 64.4954 18.176C65.0447 17.9147 65.6394 17.784 66.2794 17.784C67.058 17.784 67.7274 17.9627 68.2874 18.32C68.8527 18.6773 69.2874 19.1733 69.5914 19.808C69.8954 20.4427 70.0474 21.1707 70.0474 21.992C70.0474 22.8507 69.8794 23.6 69.5434 24.24C69.2127 24.88 68.7407 25.376 68.1274 25.728C67.514 26.0747 66.786 26.248 65.9434 26.248ZM66.0314 25.12C66.938 25.12 67.626 24.8373 68.0954 24.272C68.57 23.7067 68.8074 22.9547 68.8074 22.016C68.8074 21.056 68.562 20.2987 68.0714 19.744C67.586 19.1893 66.9007 18.912 66.0154 18.912C65.13 18.912 64.45 19.1893 63.9754 19.744C63.5007 20.2987 63.2634 21.056 63.2634 22.016C63.2634 22.976 63.5007 23.7333 63.9754 24.288C64.45 24.8427 65.1354 25.12 66.0314 25.12ZM74.2795 26.24C73.6288 26.24 73.0822 26.1227 72.6395 25.888C72.2022 25.6533 71.8742 25.3413 71.6555 24.952C71.4368 24.5627 71.3275 24.1387 71.3275 23.68C71.3275 23.2107 71.4208 22.8107 71.6075 22.48C71.7995 22.144 72.0582 21.8693 72.3835 21.656C72.7142 21.4427 73.0955 21.28 73.5275 21.168C73.9648 21.0613 74.4475 20.968 74.9755 20.888C75.5088 20.8027 76.0288 20.7307 76.5355 20.672C77.0475 20.608 77.4955 20.5467 77.8795 20.488L77.4635 20.744C77.4795 19.8907 77.3142 19.2587 76.9675 18.848C76.6208 18.4373 76.0182 18.232 75.1595 18.232C74.5675 18.232 74.0662 18.3653 73.6555 18.632C73.2502 18.8987 72.9648 19.32 72.7995 19.896L71.6555 19.56C71.8528 18.7867 72.2502 18.1867 72.8475 17.76C73.4448 17.3333 74.2208 17.12 75.1755 17.12C75.9648 17.12 76.6342 17.2693 77.1835 17.568C77.7382 17.8613 78.1302 18.288 78.3595 18.848C78.4662 19.0987 78.5355 19.3787 78.5675 19.688C78.5995 19.9973 78.6155 20.312 78.6155 20.632V26H77.5675V23.832L77.8715 23.96C77.5782 24.7013 77.1222 25.2667 76.5035 25.656C75.8848 26.0453 75.1435 26.24 74.2795 26.24ZM74.4155 25.224C74.9648 25.224 75.4448 25.1253 75.8555 24.928C76.2662 24.7307 76.5968 24.4613 76.8475 24.12C77.0982 23.7733 77.2608 23.384 77.3355 22.952C77.3995 22.6747 77.4342 22.3707 77.4395 22.04C77.4448 21.704 77.4475 21.4533 77.4475 21.288L77.8955 21.52C77.4955 21.5733 77.0608 21.6267 76.5915 21.68C76.1275 21.7333 75.6688 21.7947 75.2155 21.864C74.7675 21.9333 74.3622 22.016 73.9995 22.112C73.7542 22.1813 73.5168 22.28 73.2875 22.408C73.0582 22.5307 72.8688 22.696 72.7195 22.904C72.5755 23.112 72.5035 23.3707 72.5035 23.68C72.5035 23.9307 72.5648 24.1733 72.6875 24.408C72.8155 24.6427 73.0182 24.8373 73.2955 24.992C73.5782 25.1467 73.9515 25.224 74.4155 25.224ZM80.6901 26V17.36H84.2501C84.4315 17.36 84.6501 17.3707 84.9061 17.392C85.1675 17.4133 85.4101 17.4533 85.6341 17.512C86.1195 17.64 86.5088 17.9013 86.8021 18.296C87.1008 18.6907 87.2501 19.1653 87.2501 19.72C87.2501 20.0293 87.2021 20.3067 87.1061 20.552C87.0155 20.792 86.8848 21 86.7141 21.176C86.6341 21.2667 86.5461 21.3467 86.4501 21.416C86.3541 21.48 86.2608 21.5333 86.1701 21.576C86.3408 21.608 86.5248 21.6827 86.7221 21.8C87.0315 21.9813 87.2661 22.2267 87.4261 22.536C87.5861 22.84 87.6661 23.2107 87.6661 23.648C87.6661 24.24 87.5248 24.7227 87.2421 25.096C86.9595 25.4693 86.5808 25.7253 86.1061 25.864C85.8928 25.9227 85.6608 25.96 85.4101 25.976C85.1648 25.992 84.9328 26 84.7141 26H80.6901ZM81.8741 25H84.6581C84.7701 25 84.9115 24.992 85.0821 24.976C85.2528 24.9547 85.4048 24.928 85.5381 24.896C85.8528 24.816 86.0821 24.656 86.2261 24.416C86.3755 24.1707 86.4501 23.904 86.4501 23.616C86.4501 23.2373 86.3381 22.928 86.1141 22.688C85.8955 22.4427 85.6021 22.2933 85.2341 22.24C85.1115 22.2133 84.9835 22.1973 84.8501 22.192C84.7168 22.1867 84.5968 22.184 84.4901 22.184H81.8741V25ZM81.8741 21.176H84.2901C84.4288 21.176 84.5835 21.168 84.7541 21.152C84.9301 21.1307 85.0821 21.096 85.2101 21.048C85.4875 20.952 85.6901 20.7867 85.8181 20.552C85.9515 20.3173 86.0181 20.0613 86.0181 19.784C86.0181 19.48 85.9461 19.2133 85.8021 18.984C85.6635 18.7547 85.4528 18.5947 85.1701 18.504C84.9781 18.4347 84.7701 18.3947 84.5461 18.384C84.3275 18.3733 84.1888 18.368 84.1301 18.368H81.8741V21.176ZM96.1246 17.36V26H94.9806V19.272L90.2446 26H89.2526V17.36H90.3966V24.032L95.1406 17.36H96.1246ZM100.714 26V18.448H97.65V17.36H104.954V18.448H101.89V26H100.714ZM106.487 26L106.471 17.36H107.655V20.616H109.679C109.93 20.616 110.175 20.6213 110.415 20.632C110.661 20.6427 110.877 20.664 111.063 20.696C111.49 20.776 111.869 20.9173 112.199 21.12C112.535 21.3227 112.797 21.6027 112.983 21.96C113.175 22.3173 113.271 22.7653 113.271 23.304C113.271 24.0453 113.079 24.6293 112.695 25.056C112.317 25.4827 111.837 25.76 111.255 25.888C111.037 25.936 110.799 25.968 110.543 25.984C110.287 25.9947 110.034 26 109.783 26H106.487ZM107.655 24.992H109.735C109.917 24.992 110.119 24.9867 110.343 24.976C110.567 24.9653 110.765 24.936 110.935 24.888C111.218 24.808 111.474 24.648 111.703 24.408C111.938 24.1627 112.055 23.7947 112.055 23.304C112.055 22.8187 111.943 22.4533 111.719 22.208C111.495 21.9573 111.197 21.792 110.823 21.712C110.658 21.6747 110.479 21.6507 110.287 21.64C110.095 21.6293 109.911 21.624 109.735 21.624H107.655V24.992Z" fill="#007D88"/>
</svg>
